<?xml version="1.0" standalone="no"?>
<!DOCTYPE svg PUBLIC "-//W3C//DTD SVG 20010904//EN"
 "http://www.w3.org/TR/2001/REC-SVG-20010904/DTD/svg10.dtd">
<svg version="1.0" xmlns="http://www.w3.org/2000/svg"
 width="477.000000pt" height="477.000000pt" viewBox="0 0 477.000000 477.000000"
 preserveAspectRatio="xMidYMid meet">
<metadata>
Created by potrace 1.11, written by Peter Selinger 2001-2013
</metadata>
<g transform="translate(0.000000,477.000000) scale(0.100000,-0.100000)"
fill="#000000" stroke="none">
<path d="M930 2401 l0 -2349 38 8 c20 5 505 108 1077 230 572 122 1048 223
1058 226 16 5 17 36 17 460 l0 454 350 0 350 0 0 125 0 125 -674 2 -675 3 650
930 650 930 -325 3 -326 2 0 425 c0 234 -4 425 -8 425 -11 0 -2133 339 -2159
345 l-23 5 0 -2349z m1085 2064 c522 -85 960 -157 973 -160 l22 -5 -2 -373 -3
-372 -497 -3 -498 -2 0 -120 0 -120 630 -2 630 -3 -653 -935 -653 -935 523 -3
523 -2 0 -410 c0 -226 -2 -410 -4 -410 -4 0 -1908 -414 -1948 -424 -17 -4 -18
107 -18 2215 0 1738 3 2219 12 2219 7 0 440 -70 963 -155z"/>
<path d="M1293 2536 c-59 -27 -80 -103 -44 -162 50 -82 173 -63 200 32 25 88
-71 168 -156 130z"/>
</g>
</svg>
